<svg xmlns="http://www.w3.org/2000/svg" xmlns:xlink="http://www.w3.org/1999/xlink" version="1.1" x="0px" y="0px" viewBox="0 0 60 75" style="enable-background:new 0 0 60 60;" xml:space="preserve"><path d="M53.8826904,29.3500977c-0.0135498-0.0391235-0.0209351-0.0801392-0.0368042-0.1183472  c-0.0380249-0.0911865-0.0879517-0.1755371-0.1384888-0.2593384c-0.0164795-0.0274658-0.027832-0.0575562-0.0457153-0.0842896  c-0.0731201-0.1090698-0.156311-0.2108154-0.2489014-0.3032227L38.0849609,13.2570801c-0.78125-0.78125-2.046875-0.78125-2.828125,0  c-0.78125,0.7807617-0.78125,2.0473633,0,2.828125L47.171875,28.0002441H8c-1.1044922,0-2,0.8955078-2,2s0.8955078,2,2,2h39.171814  l-11.914978,11.9145508c-0.78125,0.7807617-0.78125,2.0473633,0,2.828125  c0.390625,0.390625,0.9023438,0.5859375,1.4140625,0.5859375s1.0234375-0.1953125,1.4140625-0.5859375l15.3278198-15.3273315  c0.0925903-0.0924072,0.1757813-0.1941528,0.2489014-0.3032227c0.0178833-0.0267334,0.0292358-0.0568237,0.0457153-0.0842896  c0.0505371-0.0838013,0.1004639-0.1681519,0.1384888-0.2593384c0.0158691-0.038208,0.0232544-0.0792236,0.0368042-0.1183472  c0.0288696-0.0836792,0.0596924-0.1664429,0.0774536-0.2547607C53.9862671,30.2663574,54,30.1340332,54,30.0002441  s-0.0137329-0.2661133-0.039856-0.3953857C53.9423828,29.5165405,53.9115601,29.4337769,53.8826904,29.3500977z"/></svg>